PathFileType	4	(X/Y/Z)	21_coords_data.trc
DataRate	CameraRate	NumFrames	NumMarkers	Units	OrigDataRate	OrigDataStartFrame	OrigNumFrames
30.0	30.0	8	21	m	30.0	56	65
Frame#	Time	THUMB_TIP	THUMB_IP	THUMB_MCP	THUMB_CMC	INDEX_TIP	INDEX_DIP	INDEX_PIP	INDEX_MCP	MIDDLE_TIP	MIDDLE_DIP	MIDDLE_PIP	MIDDLE_MCP	RING_TIP	RING_DIP	RING_PIP	RING_MCP	PINKY_TIP	PINKY_DIP	PINKY_PIP	PINKY_MCP	WRIST
X1	Y1	Z1	X2	Y2	Z2	X3	Y3	Z3	X4	Y4	Z4	X5	Y5	Z5	X6	Y6	Z6	X7	Y7	Z7	X8	Y8	Z8	X9	Y9	Z9	X10	Y10	Z10	X11	Y11	Z11	X12	Y12	Z12	X13	Y13	Z13	X14	Y14	Z14	X15	Y15	Z15	X16	Y16	Z16	X17	Y17	Z17	X18	Y18	Z18	X19	Y19	Z19	X20	Y20	Z20	X21	Y21	Z21
54	1.8333333333333253	0.4962214694013224	0.006388585992866624	-0.16888510091448183	0.49131916830242817	-0.0017274019527168116	-0.14795430581245755	0.4812407487059922	-0.011703838212178352	-0.1202466141366958	0.475745723236346	-0.02230758811719402	-0.0772669074946093	0.5840330158523294	0.042503799895842076	-0.14932422848745575	0.5692471080516004	0.037129404704997815	-0.14035245013302838	0.5487673895518652	0.031160506388027698	-0.1270496979345817	0.5162500080888262	0.0167546444560972	-0.10362477234696538	0.6042310796040666	0.051089576842744955	-0.11483004007487918	0.5877613497718568	0.04573606538800268	-0.10953023683721475	0.561354248461451	0.03906301353692332	-0.09915984970004499	0.5245592345887383	0.01866243313786964	-0.08412352054400973	0.6072721366309836	0.042471085048692236	-0.08804867060141819	0.5907329061952717	0.036581830272013005	-0.08395348626249172	0.5677409685893724	0.029310725937927384	-0.0777340147504359	0.5324524535483758	0.01172454048798921	-0.06878037741571297	0.6021099709718034	0.024836031983570983	-0.0578509862929551	0.5864398923509466	0.017998813296015936	-0.05701368310132582	0.5667060296706612	0.010857551259524922	-0.056389936965616116	0.5329665851821002	-0.001871084683563562	-0.055672187962393704	0.4622830810018609	-0.023011742144276925	-0.051989820119430985
55	1.8666666666666587	0.49649477070693704	0.0061643037045346905	-0.16888142181872567	0.4915200615764602	-0.0018793331008535308	-0.14793978444219374	0.48134552581743073	-0.011782976030287662	-0.12024110796091586	0.47576731950561857	-0.02232013686731782	-0.07725574003370811	0.5841976046423714	0.04216532933842754	-0.14924825089374083	0.569361692010187	0.03691912839440714	-0.14028314788121765	0.5488362882875302	0.031093217464532308	-0.12698741936191088	0.5162538396737559	0.016811702485473257	-0.10357677079691635	0.6043749131656593	0.05075083906912936	-0.1147451245719947	0.5878604781222894	0.045535034684708764	-0.1094471230788111	0.5614140830384355	0.039010004175013324	-0.09908267837992568	0.5245492803293677	0.018712871750740767	-0.0840773240831067	0.6073422564697888	0.04216451228478546	-0.08819336207497425	0.5907760964620286	0.036399457411949276	-0.0840308526262789	0.5677569045837105	0.029270489646815223	-0.07774797089312047	0.5324546622366204	0.011737749406502629	-0.06874377526369052	0.6021437080217154	0.024717464974243764	-0.058169337808170296	0.5864553507390143	0.017934224432106793	-0.057240309542814505	0.5667128112995568	0.010825025077555228	-0.056530774470598344	0.5329759338862776	-0.0019012665736710677	-0.0556658731991721	0.462283081001861	-0.023011742144276925	-0.051989820119430985
57	1.9000000000000012	0.49673996702364054	0.006008712021725371	-0.16885985579601454	0.4917047476057852	-0.001992333545358882	-0.1479163643190068	0.4814506855967984	-0.0118484426467651	-0.12023006218786197	0.47578822090357553	-0.022342545790151935	-0.07724517771885403	0.5843928271929719	0.04186206799957415	-0.14915330088991446	0.569522338941971	0.03668356247056359	-0.1402061415830253	0.5489594286691577	0.0309456521087772	-0.12693011285481248	0.5163064617387871	0.01677279537664189	-0.10355170451090473	0.6045449502745832	0.05038346276868699	-0.11469530494292934	0.5880003414873296	0.045256441364978084	-0.1094047878034961	0.5615207902717435	0.038854931029820294	-0.09904797444947527	0.5245888179681326	0.018673428813836712	-0.08405183124291793	0.6074215680410023	0.04181989889368687	-0.08838965425520101	0.5908341647050327	0.036164519694566466	-0.0841618017643943	0.5677973802215055	0.029157649957771037	-0.07780646415329096	0.5324897343931694	0.01167827962494783	-0.06872006812247616	0.602170745758431	0.024599197846515986	-0.05850801333876132	0.5864723190709756	0.01785364703613801	-0.05747993561640957	0.5667306906457816	0.010751371082343697	-0.0566813102989267	0.5329980301564707	-0.001974619146109635	-0.05566138872438764	0.4622830810018609	-0.023011742144276925	-0.051989820119430985
58	1.9333333333333345	0.49697688249854444	0.005850262555900598	-0.16884128554228434	0.4918836609229039	-0.0021095256953449493	-0.14789609838683582	0.481550136316805	-0.0119158805335986	-0.12022167564666997	0.4758053660881658	-0.022364234219187873	-0.07723656752442637	0.5845743063357176	0.04157660657747686	-0.14906953458172312	0.5696729197940231	0.03645728427987083	-0.1401397407236188	0.5490771817103407	0.030794380586042336	-0.12688240586540617	0.5163561284627587	0.016723704586192656	-0.10353749538632823	0.6047040026505793	0.05000705608918021	-0.11467948759324414	0.5881313376255157	0.044970345224422226	-0.10939003415911103	0.5616218375650535	0.03869425707954477	-0.09903307156662872	0.524628271024004	0.01862619787616049	-0.08403650678057151	0.6074930952682497	0.04146484610291834	-0.08862223106987493	0.5908850079185195	0.03592542896685014	-0.08432266221051571	0.5678334306938764	0.029042224681093076	-0.07788633832052638	0.5325225906179734	0.011618681489773297	-0.06870562212873504	0.6021966464003143	0.02447865474645572	-0.05885623910147708	0.5864889598045568	0.01777061166553129	-0.05772896813408612	0.5667483268334699	0.010676275359161713	-0.05684024923985692	0.5330183697824024	-0.0020431902447402006	-0.05566184222854709	0.4622830810018609	-0.023011742144276925	-0.051989820119430985
59	1.966666666666668	0.4971901947365003	0.005696198543544417	-0.16882831011386723	0.4920462097685758	-0.0022253161394018006	-0.14788101855200575	0.4816389308197009	-0.011981941264714857	-0.12021665860921266	0.47581807218506356	-0.022382611110032924	-0.07723022270759061	0.5847345847251609	0.041323765580303595	-0.1489987608084964	0.5698067554715769	0.036254376587436354	-0.1400846591142797	0.5491840579290082	0.030650454474571598	-0.1268441819317656	0.5164013778547061	0.016669003881808697	-0.10353214597460181	0.6048467327028944	0.04964814909944526	-0.11468585194443087	0.5882496406456745	0.04469659890517508	-0.10939258396351464	0.561714289156621	0.03853810770000499	-0.09903122992901553	0.5246662197646734	0.018575012539360558	-0.0840291198462138	0.6075553384616195	0.04112260626830366	-0.08886685227216912	0.590928485669573	0.03569635863925236	-0.08449608541727582	0.5678662480603693	0.028926748131696156	-0.07797799144490764	0.5325528498469123	0.01155947156022874	-0.06870100674577279	0.6022215862779043	0.024358249311559055	-0.05918649798559822	0.5865067054234916	0.017682790822229566	-0.057969627536926915	0.5667671376055878	0.010596295870681893	-0.056998509282510046	0.5330375098111676	-0.0021091595616898884	-0.05566920039970591	0.4622830810018609	-0.023011742144276925	-0.051989820119430985
60	2.000000000000001	0.49736461186700365	0.005553807556633927	-0.16882366126562215	0.4921818171227843	-0.002334081286113787	-0.14787324723048317	0.48171210058853997	-0.012043257245590633	-0.1202157538899708	0.4758256604205271	-0.022395090040117083	-0.07722646010718609	0.5848662935628897	0.041118353963079834	-0.14894282525395547	0.5699172592889732	0.03608890476107085	-0.14004164471417957	0.5492746470263428	0.03052492743812374	-0.12681536223101647	0.5164407577223028	0.016613264723749244	-0.10353366453322099	0.6049681249358094	0.04933331740746616	-0.11470271226564421	0.5883516410008447	0.04445502817018232	-0.10940226362836208	0.5617952794234491	0.0383965957922906	-0.09903574989938169	0.5247012471048679	0.018523716232731302	-0.08402744068883738	0.6076074646671317	0.04081669909693553	-0.08909947433626703	0.5909648250946098	0.03549156536119946	-0.084664894451356	0.5678971093308278	0.028813780455522076	-0.07807189382987273	0.5325801284633929	0.01150117033554554	-0.06870678693016646	0.6022462335050478	0.024240565895291888	-0.05947134119799086	0.5865272670129598	0.017587954976677533	-0.058184150308438876	0.56678869488309	0.01050804456173049	-0.057147011074655196	0.5330559978239238	-0.0021747142242215523	-0.05568542642370833	0.4622830810018609	-0.023011742144276925	-0.051989820119430985
61	2.033333333333334	0.497484856711219	0.005430411273354641	-0.1688301568662841	0.4922799123901722	-0.0024301704683702408	-0.1478749711287044	0.4817646621635584	-0.012096441656612722	-0.12021972363411387	0.47582745227173984	-0.02239908763507903	-0.07722559584271793	0.5849620928277325	0.0409751709093783	-0.14890358096001954	0.5699978809290769	0.03597492459955487	-0.14001145528090142	0.5493435875394399	0.03042885467935641	-0.1267958922578945	0.5164728268446979	0.01656105672378183	-0.1035400679290866	0.6050634054386197	0.0490891730115145	-0.11471848488739289	0.5884338888755524	0.0442654450868728	-0.10940898135243743	0.561861997335017	0.03827982328503576	-0.09903996685715383	0.5247319414629686	0.018476162212478053	-0.08402924135630518	0.607649180204795	0.04057082959568403	-0.08929622542355425	0.5909945334624246	0.03532537596477625	-0.08481203563131151	0.5679273719133452	0.028705905933342768	-0.07815856634291535	0.5326040404492011	0.01144430126153173	-0.06872352037438301	0.6022715622059931	0.02412828589106808	-0.05968337491038811	0.5865525445957096	0.01748394113774565	-0.05835477859600474	0.5668146822261158	0.010408171907952513	-0.05727667939570935	0.5330743700222991	-0.0022420480643130514	-0.05571248054572964	0.462283081001861	-0.023011742144276925	-0.051989820119430985
62	2.0666666666666673	0.4975356419532889	0.00533334942792929	-0.16885062797254852	0.4923299175522641	-0.0025079115932334917	-0.14788839862883207	0.48179162812984166	-0.012138089577904076	-0.12022932908495859	0.47582276412605984	-0.022392020918120537	-0.07722793893795887	0.5850145901042723	0.04090900872460257	-0.14888284715081535	0.5700420295533082	0.03592649215611121	-0.13999482379393657	0.5493855207658358	0.030373291364716004	-0.12678571940781236	0.5164961537015813	0.016516947875849675	-0.10354938206236819	0.6051278876826738	0.04894234947338061	-0.11472162136341457	0.588492988687126	0.04414766888493005	-0.10940267659375813	0.5619116564045297	0.038197881466691674	-0.09903723623842453	0.5247568980538934	0.018436210866918046	-0.08403229611818841	0.6076804392837423	0.04040875315432191	-0.08943332080520505	0.5910182163211817	0.03521216292451501	-0.08492047514759676	0.567958448890209	0.028605723253981474	-0.07822853522638917	0.5326241976179471	0.011389389488235202	-0.0687517545127137	0.6022985356447452	0.02402406999436324	-0.05979521006242744	0.5865844704580053	0.017368596635387146	-0.05846373356062612	0.5668468194169602	0.010293337773220279	-0.05737843986062652	0.5330931483548034	-0.0023133619959622154	-0.055752321243362546	0.4622830810018608	-0.023011742144276925	-0.051989820119430985
